<svg xmlns="http://www.w3.org/2000/svg" viewBox="0 0 128 128" width="128" height="128">
  <defs>
    <radialGradient id="amber-glow" cx="40%" cy="38%" r="50%">
      <stop offset="0%" stop-color="#FFD87A"/>
      <stop offset="45%" stop-color="#E8A020"/>
      <stop offset="80%" stop-color="#D4880E"/>
      <stop offset="100%" stop-color="#B06A08"/>
    </radialGradient>
    <radialGradient id="amber-highlight" cx="35%" cy="30%" r="30%">
      <stop offset="0%" stop-color="#FFFBE6" stop-opacity="0.7"/>
      <stop offset="100%" stop-color="#FFD87A" stop-opacity="0"/>
    </radialGradient>
    <radialGradient id="amber-border" cx="50%" cy="50%" r="50%">
      <stop offset="80%" stop-color="#A06010"/>
      <stop offset="100%" stop-color="#6B3F08"/>
    </radialGradient>
  </defs>
  <!-- Dark border/outline - organic oval, tilted to match branch direction -->
  <ellipse cx="64" cy="64" rx="58" ry="48" transform="rotate(35 64 64)" fill="url(#amber-border)" stroke="#4A2800" stroke-width="2.5"/>
  <!-- Main amber body -->
  <ellipse cx="64" cy="64" rx="54" ry="44" transform="rotate(35 64 64)" fill="url(#amber-glow)"/>
  <!-- Inner highlight (gem refraction) -->
  <ellipse cx="52" cy="48" rx="26" ry="18" transform="rotate(30 52 48)" fill="url(#amber-highlight)"/>
  <!-- Olive branch (traced from original icon), white, centered -->
  <g transform="translate(30, 25) scale(0.0132, -0.0132) translate(0, -5029)" fill="#FFF5E0" fill-opacity="0.92" stroke="none">
    <path d="M87 5012 c-88 -81 -87 -80 -87 -169 0 -46 4 -83 10 -83 5 0 14 -18
20 -40 23 -84 130 -268 249 -430 152 -205 251 -320 493 -576 57 -60 107 -124
125 -160 17 -32 88 -171 158 -309 70 -137 130 -254 134 -260 4 -5 12 -23 19
-38 11 -25 9 -31 -27 -70 -57 -63 -71 -96 -71 -174 1 -110 48 -220 134 -311
91 -97 163 -133 277 -139 62 -4 84 -1 115 15 96 49 126 143 85 268 -23 71 -45
115 -83 169 -38 53 -188 205 -203 205 -21 0 -63 54 -106 135 -64 123 -72 135
-117 203 -45 69 -47 72 -32 72 8 0 211 -165 350 -284 14 -12 53 -43 87 -70 57
-44 93 -94 93 -128 0 -8 6 -34 14 -59 7 -24 21 -69 29 -99 36 -128 51 -178 63
-220 7 -25 23 -79 34 -120 12 -41 28 -98 36 -125 14 -50 14 -52 -16 -112 -50
-99 -63 -164 -64 -303 -1 -121 11 -220 39 -325 47 -174 64 -227 101 -313 8
-18 14 -37 14 -43 0 -21 104 -226 148 -292 48 -73 140 -163 152 -150 4 4 14
40 23 78 13 57 17 146 19 475 3 364 1 414 -16 490 -35 162 -76 265 -152 381
-26 40 -57 100 -69 134 -12 33 -27 73 -34 88 -6 16 -11 32 -11 36 0 14 -102
243 -145 326 -26 49 -40 87 -34 90 8 5 83 -48 164 -117 11 -9 47 -39 81 -65
115 -91 209 -167 244 -200 35 -32 43 -51 86 -201 9 -31 20 -70 25 -86 10 -32
-7 -60 -42 -71 -10 -3 -28 -22 -40 -41 -60 -98 43 -324 181 -394 56 -29 86
-26 125 13 62 62 71 188 22 298 -26 60 -50 87 -110 125 -21 14 -42 36 -47 49
-5 13 -23 54 -40 90 -17 37 -30 74 -28 83 5 25 112 -71 475 -426 l43 -42 -6
-73 c-5 -55 -12 -78 -29 -97 -73 -80 -85 -188 -36 -310 16 -39 42 -91 58 -113
15 -23 36 -60 46 -82 10 -22 39 -65 65 -95 26 -30 65 -77 87 -105 22 -27 45
-56 52 -63 7 -7 55 -65 107 -130 146 -181 164 -200 176 -182 12 19 13 242 0
330 -21 147 -29 188 -48 247 -46 140 -109 237 -230 356 -106 103 -124 129
-120 165 3 25 17 13 169 -143 335 -344 474 -495 497 -543 9 -17 22 -32 29 -32
7 0 33 -21 58 -47 25 -25 48 -43 52 -39 4 4 3 10 -2 14 -15 11 -49 81 -43 88
6 6 196 -186 211 -213 6 -9 3 -21 -7 -32 -23 -26 -22 -196 2 -276 35 -114 81
-165 203 -225 100 -50 117 -57 234 -93 166 -53 216 -67 234 -67 10 0 26 -7 37
-15 29 -22 64 -19 64 5 0 27 -34 94 -73 145 -107 138 -357 399 -466 485 -42
33 -41 53 2 32 12 -6 56 -20 97 -33 41 -12 94 -28 118 -36 23 -7 51 -13 62
-13 10 0 45 -7 77 -15 116 -30 323 -12 323 29 0 17 -148 158 -250 238 -256
202 -350 252 -470 253 -55 0 -74 -5 -122 -32 -64 -36 -99 -40 -155 -18 -46 17
-203 55 -231 55 -13 0 -39 24 -73 68 -120 153 -243 307 -249 312 -3 3 -25 30
-50 60 -57 70 -100 119 -172 196 -86 91 -81 96 70 69 48 -9 130 -23 182 -31
214 -34 219 -36 374 -153 165 -125 262 -191 349 -234 74 -38 167 -46 299 -27
46 6 117 16 158 21 41 4 95 13 120 18 46 10 110 23 233 46 124 22 118 44 -35
118 -62 30 -142 67 -178 82 -36 15 -74 31 -85 36 -30 14 -184 68 -235 84 -25
7 -70 21 -100 30 -178 54 -320 85 -510 110 -157 20 -626 20 -705 -1 -31 -7
-61 -14 -67 -14 -6 0 -81 69 -167 153 -196 191 -283 270 -496 447 -93 78 -179
149 -190 158 -11 10 -46 37 -77 62 -90 69 -75 79 43 29 130 -55 138 -59 172
-73 17 -8 73 -30 122 -51 50 -20 104 -43 122 -51 17 -8 36 -14 41 -14 18 0 42
-43 42 -75 0 -16 14 -54 30 -82 93 -162 342 -313 518 -313 125 0 202 73 202
192 0 95 -77 194 -213 274 -32 19 -61 34 -65 34 -4 0 -20 7 -36 15 -31 16 -74
29 -161 47 -69 14 -154 3 -210 -27 l-48 -25 -56 26 c-111 52 -180 82 -248 108
-24 9 -60 22 -80 30 -38 15 -128 43 -233 73 -133 39 -182 67 -335 194 -11 10
-111 90 -222 179 -112 88 -203 165 -203 171 0 20 38 12 230 -45 25 -8 74 -21
110 -31 36 -9 83 -23 105 -30 22 -7 69 -20 105 -30 191 -52 187 -49 295 -160
250 -257 446 -347 785 -362 122 -5 126 -7 178 -40 28 -19 55 -39 58 -44 13
-22 71 -8 127 30 39 27 73 42 105 46 95 11 117 19 114 39 -4 23 -25 41 -117
104 -155 105 -305 177 -540 257 -38 13 -101 35 -140 48 -114 40 -221 72 -367
111 -29 8 -78 21 -109 30 -31 9 -64 16 -75 16 -10 0 -32 7 -48 15 -15 8 -39
15 -52 15 -13 0 -41 6 -61 14 -65 24 -137 45 -181 52 -41 6 -71 28 -58 41 4 4
59 11 124 15 64 5 209 15 322 24 213 17 313 16 390 -3 193 -49 452 -85 471
-66 6 6 6 26 0 54 -6 24 -6 48 -2 52 4 4 35 1 67 -7 64 -16 255 -34 399 -38
l90 -3 3 27 c4 34 -34 94 -90 142 -43 38 -192 116 -219 116 -8 0 -19 4 -25 9
-5 5 -29 14 -54 19 -25 6 -63 15 -85 21 -83 20 -204 40 -331 55 -315 38 -490
10 -695 -111 -42 -25 -68 -33 -103 -33 -129 0 -405 -54 -551 -107 -72 -27
-196 -85 -240 -113 -46 -30 -53 -32 -68 -23 -8 4 -82 67 -163 138 -455 398
-799 835 -820 1041 -9 83 7 131 61 184 25 24 45 50 45 57 0 7 -24 30 -52 52
-29 22 -61 47 -70 56 -23 20 -88 18 -111 -3z m3820 -3988 c110 -46 107 -43
110 -106 1 -32 -1 -58 -5 -58 -4 0 -23 15 -43 33 -19 17 -61 55 -92 83 -31 28
-57 54 -57 58 0 11 49 6 87 -10z m263 -284 c0 -5 -4 -10 -9 -10 -6 0 -13 5
-16 10 -3 6 1 10 9 10 9 0 16 -4 16 -10z"/>
    <path d="M3741 872 c-49 -41 -71 -108 -71 -219 0 -50 6 -118 14 -150 7 -32 21
-94 31 -138 10 -44 24 -98 31 -120 8 -23 14 -46 14 -53 0 -42 74 -162 100
-162 17 0 68 57 90 101 64 125 81 339 37 462 -30 83 -65 141 -121 200 -25 26
-56 61 -68 77 l-24 30 -33 -28z"/>
  </g>
</svg>
