<?xml version="1.0" encoding="UTF-8"?>
<svg xmlns="http://www.w3.org/2000/svg" width="64" height="64" viewBox="0 0 64 64">
  <path fill="#ffffff" fill-opacity="0.86274511" d="
    M 48 4 C 45.8 4 43.6 4.8 42 6.4 L 36 12.4 L 33.2 9.6 L 28.4 14.4 L 31.2 17.2
    L 14.4 34 C 12.8 35.6 12 37.6 12 39.8 L 12 48 L 4 56 L 8 60 L 16 52
    L 24.2 52 C 26.4 52 28.4 51.2 30 49.6 L 46.8 32.8 L 49.6 35.6 L 54.4 30.8
    L 51.6 28 L 57.6 22 C 60.8 18.8 60.8 13.6 57.6 10.4 L 53.6 6.4
    C 52 4.8 50 4 48 4 Z
    M 48 9 C 49 9 50 9.4 50.8 10.2 L 53.8 13.2 C 55.4 14.8 55.4 17.4 53.8 19
    L 48 24.8 L 39.2 16 L 45 10.2 C 45.8 9.4 47 9 48 9 Z
    M 36.4 18.8 L 45.2 27.6 L 27.2 45.6 C 26.4 46.4 25.4 46.8 24.2 46.8
    L 18 46.8 L 18 40.6 C 18 39.4 18.4 38.2 19.2 37.4 Z"/>
</svg>
